<svg width="36" height="36" viewBox="0 0 36 36" fill="none" xmlns="http://www.w3.org/2000/svg">
<path d="M17.9378 0C13.0662 0 12.4553 0.0206492 10.5421 0.107945C8.63279 0.195099 7.32883 0.498286 6.18778 0.941746C5.00821 1.40016 4.00787 2.01351 3.01065 3.01072C2.01344 4.00794 1.40009 5.00828 0.941675 6.18785C0.498215 7.32883 0.195028 8.63279 0.107874 10.5421C0.020578 12.4553 0 13.0662 0 17.9378C0 22.8094 0.020578 23.4202 0.107874 25.3335C0.195028 27.2428 0.498215 28.5467 0.941675 29.6877C1.40009 30.8673 2.01344 31.8676 3.01065 32.8649C4.00787 33.8621 5.00821 34.4755 6.18778 34.9339C7.32883 35.3773 8.63279 35.6805 10.5421 35.7676C12.4553 35.8549 13.0662 35.8755 17.9378 35.8755C22.8094 35.8755 23.4202 35.8549 25.3335 35.7676C27.2428 35.6805 28.5467 35.3773 29.6877 34.9339C30.8673 34.4755 31.8676 33.8621 32.8649 32.8649C33.8621 31.8676 34.4755 30.8673 34.9339 29.6877C35.3773 28.5467 35.6805 27.2428 35.7676 25.3335C35.8549 23.4202 35.8756 22.8094 35.8756 17.9378C35.8756 13.0662 35.8549 12.4553 35.7676 10.5421C35.6805 8.63279 35.3773 7.32883 34.9339 6.18785C34.4755 5.00828 33.8621 4.00794 32.8649 3.01072C31.8676 2.01351 30.8673 1.40016 29.6877 0.941746C28.5467 0.498286 27.2428 0.195099 25.3335 0.107945C23.4202 0.0206492 22.8094 0 17.9378 0ZM17.9378 3.2321C22.7274 3.2321 23.2947 3.25033 25.1862 3.33662C26.9351 3.41644 27.8849 3.70867 28.517 3.95425C29.3543 4.27965 29.9518 4.66843 30.5795 5.29609C31.2072 5.92376 31.5959 6.52137 31.9213 7.35859C32.167 7.99067 32.4592 8.94046 32.5389 10.6894C32.6252 12.5808 32.6435 13.1482 32.6435 17.9378C32.6435 22.7274 32.6252 23.2947 32.5389 25.1862C32.4592 26.9351 32.167 27.8849 31.9213 28.517C31.5959 29.3542 31.2072 29.9518 30.5795 30.5795C29.9518 31.2072 29.3543 31.5959 28.517 31.9213C27.8849 32.167 26.9351 32.4592 25.1862 32.5389C23.295 32.6252 22.7277 32.6435 17.9378 32.6435C13.1478 32.6435 12.5806 32.6252 10.6894 32.5389C8.94046 32.4592 7.99067 32.167 7.35859 31.9213C6.5213 31.5959 5.92376 31.2072 5.29602 30.5795C4.66836 29.9518 4.27958 29.3542 3.95425 28.517C3.7086 27.8849 3.41637 26.9351 3.33655 25.1862C3.25025 23.2947 3.23203 22.7274 3.23203 17.9378C3.23203 13.1482 3.25025 12.5808 3.33655 10.6894C3.41637 8.94046 3.7086 7.99067 3.95425 7.35859C4.27958 6.52137 4.66836 5.92376 5.29602 5.29609C5.92376 4.66843 6.5213 4.27965 7.35859 3.95425C7.99067 3.70867 8.94046 3.41644 10.6894 3.33662C12.5808 3.25033 13.1482 3.2321 17.9378 3.2321Z" fill="white"/>
<path d="M17.934 23.9171C14.6317 23.9171 11.9547 21.2401 11.9547 17.9379C11.9547 14.6356 14.6317 11.9586 17.934 11.9586C21.2362 11.9586 23.9132 14.6356 23.9132 17.9379C23.9132 21.2401 21.2362 23.9171 17.934 23.9171ZM17.934 8.72656C12.8467 8.72656 8.72266 12.8506 8.72266 17.9379C8.72266 23.0251 12.8467 27.1491 17.934 27.1491C23.0212 27.1491 27.1452 23.0251 27.1452 17.9379C27.1452 12.8506 23.0212 8.72656 17.934 8.72656Z" fill="white"/>
<path d="M29.6696 8.36295C29.6696 9.55178 28.7058 10.5155 27.517 10.5155C26.3283 10.5155 25.3645 9.55178 25.3645 8.36295C25.3645 7.17413 26.3283 6.21045 27.517 6.21045C28.7058 6.21045 29.6696 7.17413 29.6696 8.36295Z" fill="white"/>
</svg>
