<svg width="37" height="30" viewBox="0 0 37 30" fill="none" xmlns="http://www.w3.org/2000/svg">
<path d="M33.3565 29.9965H4.20758C3.24123 29.9965 2.31446 29.6127 1.63115 28.9293C0.947844 28.246 0.563965 27.3193 0.563965 26.3529V4.33277C0.604833 3.39416 1.00668 2.50761 1.68561 1.85821C2.36454 1.20882 3.26807 0.846769 4.20758 0.847658H33.3565C34.3228 0.847658 35.2496 1.23154 35.9329 1.91485C36.6162 2.59816 37.0001 3.52492 37.0001 4.49127V26.3529C37.0001 27.3193 36.6162 28.246 35.9329 28.9293C35.2496 29.6127 34.3228 29.9965 33.3565 29.9965ZM4.20758 7.8944V26.3529H33.3565V7.8944L18.782 17.6083L4.20758 7.8944ZM5.66502 4.49127L18.782 13.2359L31.899 4.49127H5.66502Z" fill="white"/>
</svg>
