<svg width="262" height="60" viewBox="0 0 262 60" fill="none" xmlns="http://www.w3.org/2000/svg">
<path d="M87.6195 7.83548V7.85735H87.6413C87.6996 7.85735 87.9037 7.86464 88.2536 7.87921C89.6821 7.99583 91.0451 8.11973 92.3424 8.25093L93.9386 9.65033C94.5217 13.0176 94.7914 14.8762 94.7477 15.2261C94.2812 15.7654 93.8147 16.3121 93.3483 16.866C92.7069 17.5948 92.1748 18.0103 91.7521 18.1123C92.6413 19.6721 94.2958 21.9753 96.7156 25.0219L94.5727 25.6341C93.7273 24.8469 92.7142 23.7609 91.5334 22.3761C90.5859 21.2245 89.6311 20.0657 88.669 18.8995L86.8104 19.3149C86.723 21.7639 86.723 23.5131 86.8104 24.5627L83.3557 24.9344C83.4431 23.5787 83.5087 21.5161 83.5525 18.7464L83.5743 16.6473L83.3994 8.09787L87.5976 7.85735L87.6195 7.83548ZM90.9868 10.022L86.4825 10.3063C86.4679 10.9185 86.5481 12.092 86.723 13.8267C86.8833 15.3135 86.9125 16.4724 86.8104 17.3033C88.0495 17.0263 89.1282 16.6036 90.0466 16.0351L91.5553 14.6794L90.9868 10.022ZM110.487 20.5831C110.224 21.2391 109.911 21.8951 109.546 22.551C108.818 23.8047 108.125 24.5408 107.469 24.7595C106.944 24.9198 105.873 25 104.255 25C102.36 25 101.106 24.8469 100.494 24.5408C100.013 24.293 99.4955 23.3674 98.9416 21.7639C98.4314 20.3208 98.1836 19.3004 98.1982 18.7027C98.2127 17.5657 98.1399 15.8383 97.9795 13.5205C97.8192 11.2611 97.7536 9.53371 97.7827 8.33839L101.216 8.076C101.157 9.30048 101.15 11.5745 101.194 14.8981C101.237 18.2945 101.31 20.226 101.412 20.6925C101.485 21.0423 101.536 21.2756 101.565 21.3922C101.653 21.6546 101.762 21.8732 101.893 22.0481C102.316 22.6312 103.03 22.9373 104.036 22.9665C104.488 22.9957 104.969 22.9446 105.479 22.8134C106.004 22.6677 106.31 22.4927 106.398 22.2887C106.923 21.1371 107.272 19.8834 107.447 18.5278C107.564 17.6531 107.637 16.3631 107.666 14.6576C107.666 14.0307 107.724 12.9448 107.841 11.3996C107.943 10.1022 107.979 9.01623 107.95 8.1416L111.733 7.90108L110.487 20.5831ZM124.739 23.7318C124.346 24.1108 123.624 24.4169 122.575 24.6501C121.7 24.8397 120.884 24.9344 120.126 24.9344C119.324 24.9344 117.713 24.9052 115.293 24.8469C115.191 22.5875 115.046 19.2931 114.856 14.9637C114.827 13.4622 114.754 11.1809 114.638 8.11974L120.782 7.76988C121.015 7.75531 121.773 7.8865 123.056 8.16347C124.586 8.48416 125.556 8.81944 125.964 9.16929C126.183 9.48998 126.503 9.99289 126.926 10.678C127.261 11.3777 127.422 12.2378 127.407 13.2582C127.334 18.6079 126.445 22.0992 124.739 23.7318ZM124.105 13.3456C124.149 13.3602 124.178 13.3529 124.193 13.3238C124.207 13.2946 124.207 13.229 124.193 13.127C124.149 12.8208 124.054 12.2669 123.909 11.4652L121.635 10.1532L118.42 10.2844L118.333 12.7115C118.275 13.9506 118.275 17.4199 118.333 23.1196L119.907 23.1414L123.056 22.0263C123.741 20.0438 124.113 17.1211 124.171 13.2582L124.083 13.28C124.083 13.3092 124.091 13.331 124.105 13.3456ZM140.41 23.8411C140.001 24.1618 138.923 24.5481 137.173 25C134.987 24.9417 133.719 24.7595 133.369 24.4534C132.232 23.4475 131.452 22.4344 131.029 21.414C130.709 20.6852 130.388 19.3587 130.067 17.4345C129.878 14.5482 129.805 12.8354 129.848 12.2961C130.184 11.2174 130.541 10.3938 130.92 9.82525C131.474 9.02351 132.188 8.47687 133.063 8.18533C134.287 7.79175 135.563 7.59496 136.889 7.59496C139.032 7.59496 140.636 7.97396 141.7 8.73197C142.385 9.21302 142.866 9.86899 143.143 10.6999C143.391 11.4433 143.515 12.471 143.515 13.7829C143.515 14.4681 143.478 15.503 143.405 16.8879C143.361 17.6604 143.019 18.8485 142.377 20.4519C141.678 22.2449 141.022 23.3747 140.41 23.8411ZM135.446 10.1314C135.053 10.2188 134.593 10.5104 134.069 11.006C133.544 11.5016 133.281 11.9316 133.281 12.2961C133.252 12.9666 133.216 14.0453 133.172 15.5322C133.128 17.0628 133.15 18.1561 133.238 18.812C133.383 19.8907 133.864 20.9257 134.681 21.9169C134.943 22.2376 135.752 22.398 137.108 22.398C137.851 22.398 138.391 22.3032 138.726 22.1137C138.915 22.0117 139.207 21.035 139.601 19.1837C140.052 17.1138 140.278 15.3281 140.278 13.8267C140.278 12.0045 139.921 10.9258 139.207 10.5906C138.915 10.4448 137.662 10.2917 135.446 10.1314ZM155.891 24.519L147.101 25.1749C147.116 25.0146 147.145 23.6152 147.189 20.9767C147.218 19.2712 147.189 17.1211 147.101 14.5264C146.97 10.5468 146.905 8.40399 146.905 8.09787L151.147 7.74802C150.884 9.40981 150.724 10.7582 150.666 11.7932C150.491 14.8835 150.316 18.4768 150.141 22.5729L156.176 22.9665L155.891 24.519ZM167.259 9.71593L162.23 10.4594L161.53 10.9841C161.487 11.6838 161.45 12.3908 161.421 13.1051C161.363 14.1838 161.355 15.0657 161.399 15.7508L167.5 15.7727L167.193 17.4564L161.443 18.003L161.268 24.7376L158.513 25.0437C158.469 22.6239 158.294 18.761 157.988 13.4549L157.901 9.25675L158.425 8.31653L168.002 8.05414L167.259 9.71593ZM92.8891 50.2726H92.8672C92.7652 50.4913 92.6558 50.7245 92.5392 50.9723C92.4372 51.2201 92.2914 51.3732 92.1019 51.4315C90.8629 51.8397 89.2958 52.0437 87.4008 52.0437C86.0889 52.0437 84.7551 51.949 83.3994 51.7595L83.2026 50.0977C83.742 50.1852 84.3469 50.2289 85.0175 50.2289C87.102 50.2289 88.8439 49.7989 90.2433 48.9388C90.36 48.8659 90.4183 48.6108 90.4183 48.1735C90.4183 47.5759 90.3162 46.7377 90.1121 45.659C89.9372 45.484 88.8075 44.9374 86.723 44.019C84.7696 43.159 83.6837 42.5395 83.465 42.1605C83.2172 41.7232 83.0933 40.4768 83.0933 38.4214C83.0933 37.197 83.1735 36.4754 83.3338 36.2567C83.6399 35.8486 83.8804 35.4987 84.0554 35.2072C84.2886 34.9157 85.207 34.7699 86.8104 34.7699C88.516 34.7699 90.5713 34.9011 92.9765 35.1635L92.5174 36.9564C92.1967 36.971 91.7666 36.9637 91.2273 36.9346C90.5276 36.8909 90.0976 36.869 89.9372 36.869C88.2609 36.8398 87.1384 36.9783 86.5699 37.2844L86.1763 40.3675C86.3221 40.5716 86.8906 40.885 87.8819 41.3077C88.5087 41.5701 89.1428 41.8325 89.7842 42.0949C91.9853 43.0132 93.2608 43.8004 93.6106 44.4564C93.7273 44.6896 93.7856 45.0394 93.7856 45.5059C93.7856 46.9199 93.4795 48.5015 92.8672 50.2507L92.8891 50.2726ZM102.437 37.4812L101.978 38.1372C101.905 41.1838 101.774 45.7173 101.584 51.7376L98.9821 52.2624C99.0112 51.723 99.0258 51.1472 99.0258 50.535C99.0258 49.6604 98.9748 48.2464 98.8727 46.2931C98.7707 44.4418 98.727 43.0497 98.7416 42.1167C98.7561 41.2858 98.6541 39.901 98.4354 37.9623L97.8013 37.5687L94.3903 36.9783L94.6527 35.3821L97.8451 35.2728C99.4631 35.1999 102.174 35.1197 105.979 35.0323L106.263 36.7597L102.437 37.4812ZM117.958 36.4973C114.591 36.6722 112.732 36.9637 112.382 37.3719C112.091 37.7072 111.952 39.3471 111.967 42.2917L112.361 42.7727L117.696 42.9476L117.499 44.522L111.945 45.003C111.96 45.8047 111.982 46.5044 112.011 47.1021C112.113 48.5452 112.259 49.3834 112.448 49.6166C112.725 49.9082 114.686 50.0029 118.33 49.9009L118.068 51.4534C114.613 51.8178 112.091 52 110.502 52C109.715 52 109.292 51.949 109.234 51.8469C108.971 51.4242 108.775 49.3907 108.643 45.7464L108.49 41.5701C108.359 37.7946 108.469 35.732 108.818 35.3821C109.183 35.0177 112.361 34.8209 118.352 34.7918L117.958 36.4973ZM124.952 51.7813L122.459 51.9781L121.738 39.3398C121.723 38.4798 121.665 37.1095 121.563 35.2291L125.651 34.8573C125.491 37.6853 125.338 40.506 125.192 43.3193C125.017 46.6283 124.937 49.449 124.952 51.7813ZM134.14 35.0323C135.219 36.7524 136.291 38.4798 137.355 40.2144C138.623 42.3573 139.607 44.3543 140.307 46.2056L140.022 34.8792L143.674 34.7699C143.426 36.9856 143.207 39.0555 143.018 40.9797C142.581 45.5715 142.34 49.019 142.296 51.3222L139.826 51.9344C139.228 50.054 138.331 47.9111 137.136 45.5059C135.882 42.9549 134.636 40.834 133.397 39.143L132.741 39.4491C132.668 47.0584 132.624 51.1837 132.61 51.8251L130.161 52.0656L129.177 38.6401C129.192 38.5818 129.439 37.4594 129.92 35.2728C130.708 35.2291 132.114 35.1489 134.14 35.0323ZM156.159 36.4973C152.792 36.6722 150.933 36.9637 150.583 37.3719C150.292 37.7072 150.153 39.3471 150.168 42.2917L150.561 42.7727L155.897 42.9476L155.7 44.522L150.146 45.003C150.161 45.8047 150.182 46.5044 150.212 47.1021C150.314 48.5452 150.459 49.3834 150.649 49.6166C150.926 49.9082 152.886 50.0029 156.531 49.9009L156.268 51.4534C152.814 51.8178 150.292 52 148.703 52C147.916 52 147.493 51.949 147.435 51.8469C147.172 51.4242 146.975 49.3907 146.844 45.7464L146.691 41.5701C146.56 37.7946 146.669 35.732 147.019 35.3821C147.384 35.0177 150.561 34.8209 156.553 34.7918L156.159 36.4973ZM163.765 34.8355V34.8573H163.787C163.845 34.8573 164.049 34.8646 164.399 34.8792C165.827 34.9958 167.19 35.1197 168.488 35.2509L170.084 36.6503C170.667 40.0176 170.937 41.8762 170.893 42.2261C170.427 42.7654 169.96 43.3121 169.494 43.866C168.852 44.5948 168.32 45.0103 167.897 45.1123C168.787 46.6721 170.441 48.9753 172.861 52.0219L170.718 52.6341C169.873 51.8469 168.859 50.7609 167.679 49.3761C166.731 48.2245 165.776 47.0657 164.814 45.8995L162.956 46.3149C162.868 48.7639 162.868 50.5131 162.956 51.5627L159.501 51.9344C159.588 50.5787 159.654 48.5161 159.698 45.7464L159.72 43.6473L159.545 35.0979L163.743 34.8573L163.765 34.8355ZM167.132 37.022L162.628 37.3063C162.613 37.9185 162.693 39.092 162.868 40.8267C163.029 42.3135 163.058 43.4724 162.956 44.3033C164.195 44.0263 165.274 43.6036 166.192 43.0351L167.701 41.6794L167.132 37.022ZM183.789 50.2726H183.768C183.666 50.4913 183.556 50.7245 183.44 50.9723C183.338 51.2201 183.192 51.3732 183.002 51.4315C181.763 51.8397 180.196 52.0437 178.301 52.0437C176.989 52.0437 175.655 51.949 174.3 51.7595L174.103 50.0977C174.642 50.1852 175.247 50.2289 175.918 50.2289C178.002 50.2289 179.744 49.7989 181.144 48.9388C181.26 48.8659 181.319 48.6108 181.319 48.1735C181.319 47.5759 181.217 46.7377 181.013 45.659C180.838 45.484 179.708 44.9374 177.623 44.019C175.67 43.159 174.584 42.5395 174.365 42.1605C174.118 41.7232 173.994 40.4768 173.994 38.4214C173.994 37.197 174.074 36.4754 174.234 36.2567C174.54 35.8486 174.781 35.4987 174.956 35.2072C175.189 34.9157 176.107 34.7699 177.711 34.7699C179.416 34.7699 181.472 34.9011 183.877 35.1635L183.418 36.9564C183.097 36.971 182.667 36.9637 182.128 36.9346C181.428 36.8909 180.998 36.869 180.838 36.869C179.161 36.8398 178.039 36.9783 177.47 37.2844L177.077 40.3675C177.222 40.5716 177.791 40.885 178.782 41.3077C179.409 41.5701 180.043 41.8325 180.685 42.0949C182.886 43.0132 184.161 43.8004 184.511 44.4564C184.628 44.6896 184.686 45.0394 184.686 45.5059C184.686 46.9199 184.38 48.5015 183.768 50.2507L183.789 50.2726ZM198.957 52.5685C198.184 50.7318 197.455 49.2595 196.77 48.1516C195.998 46.9126 194.977 45.6079 193.709 44.2377L190.976 44.3252C191.019 44.6021 191.019 45.7246 190.976 47.6925C190.947 49.7041 190.903 51.0744 190.845 51.8032L187.958 51.9344C187.492 42.7217 187.251 37.1459 187.237 35.2072L191.151 35.0104L190.998 42.6852L194.627 41.8325C195.021 40.7975 195.742 39.1357 196.792 36.8471C197.142 36.1766 197.353 35.6737 197.426 35.3384L200.465 35.076C199.955 36.971 199.496 38.2101 199.088 38.7932C198.388 39.7261 197.455 41.1401 196.289 43.0351L198.76 45.0686C199.809 48.0569 200.524 50.1997 200.903 51.4971L198.957 52.5685ZM213.202 50.8411C212.794 51.1618 211.716 51.5481 209.966 52C207.78 51.9417 206.512 51.7595 206.162 51.4534C205.025 50.4475 204.245 49.4344 203.822 48.414C203.501 47.6852 203.181 46.3587 202.86 44.4345C202.671 41.5482 202.598 39.8354 202.641 39.2961C202.977 38.2174 203.334 37.3938 203.713 36.8253C204.267 36.0235 204.981 35.4769 205.856 35.1853C207.08 34.7918 208.356 34.595 209.682 34.595C211.825 34.595 213.428 34.974 214.493 35.732C215.178 36.213 215.659 36.869 215.936 37.6999C216.183 38.4433 216.307 39.471 216.307 40.7829C216.307 41.4681 216.271 42.503 216.198 43.8879C216.154 44.6604 215.812 45.8485 215.17 47.4519C214.471 49.2449 213.815 50.3747 213.202 50.8411ZM208.239 37.1314C207.845 37.2188 207.386 37.5104 206.861 38.006C206.337 38.5016 206.074 38.9316 206.074 39.2961C206.045 39.9666 206.009 41.0453 205.965 42.5322C205.921 44.0628 205.943 45.1561 206.031 45.812C206.176 46.8907 206.657 47.9257 207.474 48.9169C207.736 49.2376 208.545 49.398 209.901 49.398C210.644 49.398 211.184 49.3032 211.519 49.1137C211.708 49.0117 212 48.035 212.393 46.1837C212.845 44.1138 213.071 42.3281 213.071 40.8267C213.071 39.0045 212.714 37.9258 212 37.5906C211.708 37.4448 210.455 37.2917 208.239 37.1314ZM228.684 51.519L219.894 52.1749C219.909 52.0146 219.938 50.6152 219.982 47.9767C220.011 46.2712 219.982 44.1211 219.894 41.5264C219.763 37.5468 219.698 35.404 219.698 35.0979L223.94 34.748C223.677 36.4098 223.517 37.7582 223.458 38.7932C223.284 41.8835 223.109 45.4768 222.934 49.5729L228.969 49.9665L228.684 51.519ZM242.785 51.9344L239.943 51.6064L239.571 48.414L235.263 48.8295L233.405 48.3703L232.355 51.9125L229.841 51.8469C230.73 45.9286 231.481 42.0876 232.093 40.3238C232.69 38.6328 233.004 37.729 233.033 37.6124C233.368 36.7378 233.762 35.8559 234.214 34.9667L239.702 34.6168C241.218 39.748 242.26 43.9534 242.829 47.2333L242.785 51.9344ZM237.581 37.1532L235.526 37.35C234.564 40.3383 234.083 42.401 234.083 43.538L233.798 46.7304L239.33 46.3587C239.36 46.14 239.389 45.8412 239.418 45.4622C239.432 44.9082 239.177 43.4651 238.653 41.1328C238.142 38.7859 237.785 37.4594 237.581 37.1532ZM250.878 35.0323C251.957 36.7524 253.028 38.4798 254.092 40.2144C255.361 42.3573 256.345 44.3543 257.044 46.2056L256.76 34.8792L260.412 34.7699C260.164 36.9856 259.945 39.0555 259.756 40.9797C259.318 45.5715 259.078 49.019 259.034 51.3222L256.563 51.9344C255.966 50.054 255.069 47.9111 253.874 45.5059C252.62 42.9549 251.374 40.834 250.135 39.143L249.479 39.4491C249.406 47.0584 249.362 51.1837 249.348 51.8251L246.899 52.0656L245.915 38.6401C245.929 38.5818 246.177 37.4594 246.658 35.2728C247.445 35.2291 248.852 35.1489 250.878 35.0323Z" fill="#252525"/>
<path d="M65.5547 12.9961H26.9125C26.0725 12.9961 25.3916 13.681 25.3916 14.5258V50.6043C25.3916 51.4491 26.0725 52.134 26.9125 52.134H65.5547C66.3947 52.134 67.0756 51.4491 67.0756 50.6043V14.5258C67.0756 13.681 66.3947 12.9961 65.5547 12.9961Z" fill="#FFCA33"/>
<path d="M45.4448 0.239121C45.943 -0.0797068 46.5796 -0.0797068 47.0778 0.23912L73.1407 16.9195C74.4245 17.741 73.8458 19.7398 72.3242 19.7398H20.1984C18.6769 19.7398 18.0982 17.741 19.382 16.9195L45.4448 0.239121Z" fill="#FFCA33"/>
<path d="M56.2451 16.7695H17.6029C16.763 16.7695 16.082 17.4544 16.082 18.2993V54.3777C16.082 55.2226 16.763 55.9075 17.6029 55.9075H56.2451C57.0851 55.9075 57.766 55.2226 57.766 54.3777V18.2993C57.766 17.4544 57.0851 16.7695 56.2451 16.7695Z" fill="#82DEF4"/>
<path d="M36.1079 3.37095C36.606 3.05213 37.2427 3.05213 37.7409 3.37095L63.8037 20.0513C65.0875 20.8729 64.5089 22.8717 62.9872 22.8717H10.8615C9.33991 22.8717 8.7613 20.8729 10.045 20.0513L36.1079 3.37095Z" fill="#82DEF4"/>
<path d="M26.7701 6.38951C27.2682 6.07068 27.9048 6.07068 28.403 6.38951L54.4658 23.0699C55.7496 23.8914 55.171 25.8902 53.6494 25.8902H1.5236C0.00203303 25.8902 -0.576607 23.8914 0.707135 23.0699L26.7701 6.38951Z" fill="#E56B6F"/>
<path d="M46.9365 20.5439H8.29433C7.45436 20.5439 6.77344 21.2288 6.77344 22.0737V58.1521C6.77344 58.997 7.45436 59.6819 8.29433 59.6819H46.9365C47.7765 59.6819 48.4574 58.997 48.4574 58.1521V22.0737C48.4574 21.2288 47.7765 20.5439 46.9365 20.5439Z" fill="#E56B6F"/>
</svg>
