<svg width="1458" height="1163" viewBox="0 0 1458 1163" fill="none" xmlns="http://www.w3.org/2000/svg">
<path d="M389.4 205H372.6V65.4H428.2C440.467 65.4 450 68.8 456.8 75.6C463.733 82.4 467.2 92.2 467.2 105C467.2 115.267 464.8 123.733 460 130.4C455.333 136.933 448.4 141.267 439.2 143.4L471.2 205H452.2L422 145H389.4V205ZM428.2 130.6C434.867 130.6 440 128.867 443.6 125.4C447.333 121.933 449.2 117 449.2 110.6V100.2C449.2 93.8 447.333 88.8667 443.6 85.4C440 81.9333 434.867 80.2 428.2 80.2H389.4V130.6H428.2ZM513.986 65.4V151.8C513.986 165.133 516.453 175.267 521.386 182.2C526.319 189 534.986 192.4 547.386 192.4C559.786 192.4 568.453 189 573.386 182.2C578.319 175.267 580.786 165.133 580.786 151.8V65.4H597.586V147.8C597.586 157.933 596.653 166.733 594.786 174.2C593.053 181.667 590.186 187.867 586.186 192.8C582.186 197.733 576.919 201.4 570.386 203.8C563.986 206.2 556.119 207.4 546.786 207.4C537.453 207.4 529.586 206.2 523.186 203.8C516.919 201.4 511.853 197.733 507.986 192.8C504.119 187.867 501.319 181.667 499.586 174.2C497.986 166.733 497.186 157.933 497.186 147.8V65.4H513.986ZM633.733 65.4H680.533C689.199 65.4 697.066 66.8667 704.133 69.8C711.199 72.7333 717.199 77.1333 722.133 83C727.199 88.7333 731.066 96 733.733 104.8C736.399 113.467 737.733 123.6 737.733 135.2C737.733 146.8 736.399 157 733.733 165.8C731.066 174.467 727.199 181.733 722.133 187.6C717.199 193.333 711.199 197.667 704.133 200.6C697.066 203.533 689.199 205 680.533 205H633.733V65.4ZM680.533 190.2C686.266 190.2 691.533 189.267 696.333 187.4C701.133 185.4 705.266 182.533 708.733 178.8C712.199 175.067 714.866 170.533 716.733 165.2C718.733 159.733 719.733 153.533 719.733 146.6V123.8C719.733 116.867 718.733 110.733 716.733 105.4C714.866 99.9333 712.199 95.3333 708.733 91.6C705.266 87.8667 701.133 85.0667 696.333 83.2C691.533 81.2 686.266 80.2 680.533 80.2H650.533V190.2H680.533ZM820.113 207.4C811.046 207.4 802.846 205.867 795.513 202.8C788.313 199.6 782.113 195 776.913 189C771.846 182.867 767.913 175.333 765.113 166.4C762.313 157.333 760.913 146.933 760.913 135.2C760.913 123.467 762.313 113.133 765.113 104.2C767.913 95.2667 771.846 87.7333 776.913 81.6C782.113 75.4667 788.313 70.8667 795.513 67.8C802.846 64.6 811.046 63 820.113 63C829.046 63 837.179 64.6 844.513 67.8C851.846 70.8667 858.046 75.4667 863.113 81.6C868.313 87.7333 872.313 95.2667 875.113 104.2C877.913 113.133 879.313 123.467 879.313 135.2C879.313 146.933 877.913 157.333 875.113 166.4C872.313 175.333 868.313 182.867 863.113 189C858.046 195 851.846 199.6 844.513 202.8C837.179 205.867 829.046 207.4 820.113 207.4ZM820.113 192.4C826.113 192.4 831.646 191.333 836.713 189.2C841.779 187.067 846.113 184 849.713 180C853.446 176 856.313 171.2 858.313 165.6C860.313 160 861.313 153.733 861.313 146.8V123.6C861.313 116.667 860.313 110.4 858.313 104.8C856.313 99.2 853.446 94.4 849.713 90.4C846.113 86.4 841.779 83.3333 836.713 81.2C831.646 79.0667 826.113 78 820.113 78C814.113 78 808.579 79.0667 803.513 81.2C798.446 83.3333 794.046 86.4 790.313 90.4C786.713 94.4 783.913 99.2 781.913 104.8C779.913 110.4 778.913 116.667 778.913 123.6V146.8C778.913 153.733 779.913 160 781.913 165.6C783.913 171.2 786.713 176 790.313 180C794.046 184 798.446 187.067 803.513 189.2C808.579 191.333 814.113 192.4 820.113 192.4ZM909.514 205V65.4H926.314V190.2H985.714V205H909.514ZM1009.71 205V65.4H1092.91V80.2H1026.51V127H1087.11V141.8H1026.51V205H1009.71Z" fill="black"/>
<path d="M111.5 383V375.05H142.1V284.9H141.35L112.55 310.55L107.45 304.85L137.3 278.3H151.1V375.05H179.9V383H111.5ZM266.691 314.9C266.691 323 265.541 330.55 263.241 337.55C261.041 344.45 258.141 350.75 254.541 356.45C250.941 362.15 246.791 367.25 242.091 371.75C237.491 376.15 232.791 379.9 227.991 383H216.291C222.091 379 227.241 375 231.741 371C236.241 367 240.141 362.8 243.441 358.4C246.841 353.9 249.641 349.15 251.841 344.15C254.141 339.05 255.941 333.4 257.241 327.2L256.641 327.05C254.041 331.75 250.591 335.5 246.291 338.3C242.091 341 236.841 342.35 230.541 342.35C225.941 342.35 221.691 341.6 217.791 340.1C213.991 338.6 210.691 336.5 207.891 333.8C205.191 331 203.091 327.65 201.591 323.75C200.091 319.75 199.341 315.3 199.341 310.4C199.341 305.3 200.141 300.7 201.741 296.6C203.341 292.4 205.591 288.85 208.491 285.95C211.391 282.95 214.891 280.65 218.991 279.05C223.191 277.35 227.841 276.5 232.941 276.5C238.441 276.5 243.291 277.45 247.491 279.35C251.691 281.15 255.191 283.75 257.991 287.15C260.891 290.45 263.041 294.5 264.441 299.3C265.941 304 266.691 309.2 266.691 314.9ZM233.091 334.7C240.791 334.7 246.741 332.55 250.941 328.25C255.241 323.95 257.391 318.15 257.391 310.85V308.45C257.391 301.05 255.241 295.2 250.941 290.9C246.641 286.5 240.691 284.3 233.091 284.3C225.391 284.3 219.391 286.5 215.091 290.9C210.791 295.2 208.641 301 208.641 308.3V310.85C208.641 318.15 210.741 323.95 214.941 328.25C219.241 332.55 225.291 334.7 233.091 334.7Z" fill="black"/>
<path d="M1174.15 384.8C1168.55 384.8 1163.65 383.9 1159.45 382.1C1155.25 380.2 1151.7 377.6 1148.8 374.3C1146 370.9 1143.85 366.85 1142.35 362.15C1140.95 357.35 1140.25 352.1 1140.25 346.4C1140.25 338.3 1141.35 330.8 1143.55 323.9C1145.85 316.9 1148.8 310.55 1152.4 304.85C1156 299.15 1160.1 294.1 1164.7 289.7C1169.4 285.2 1174.15 281.4 1178.95 278.3H1190.8C1185 282.3 1179.85 286.3 1175.35 290.3C1170.85 294.3 1166.9 298.55 1163.5 303.05C1160.1 307.45 1157.25 312.2 1154.95 317.3C1152.75 322.4 1151 328 1149.7 334.1L1150.3 334.25C1152.9 329.55 1156.3 325.85 1160.5 323.15C1164.8 320.35 1170.1 318.95 1176.4 318.95C1181 318.95 1185.2 319.7 1189 321.2C1192.9 322.7 1196.2 324.85 1198.9 327.65C1201.7 330.35 1203.85 333.7 1205.35 337.7C1206.85 341.6 1207.6 346 1207.6 350.9C1207.6 356 1206.8 360.65 1205.2 364.85C1203.6 368.95 1201.35 372.5 1198.45 375.5C1195.55 378.4 1192.05 380.7 1187.95 382.4C1183.85 384 1179.25 384.8 1174.15 384.8ZM1174 377C1181.6 377 1187.55 374.85 1191.85 370.55C1196.15 366.15 1198.3 360.3 1198.3 353V350.45C1198.3 343.15 1196.15 337.35 1191.85 333.05C1187.65 328.75 1181.7 326.6 1174 326.6C1166.2 326.6 1160.15 328.75 1155.85 333.05C1151.65 337.35 1149.55 343.15 1149.55 350.45V352.85C1149.55 360.25 1151.7 366.15 1156 370.55C1160.3 374.85 1166.3 377 1174 377ZM1292.59 286.25H1245.79L1242.49 330.05L1243.39 330.2C1245.99 326.5 1249.04 323.75 1252.54 321.95C1256.04 320.05 1260.59 319.1 1266.19 319.1C1270.79 319.1 1274.99 319.85 1278.79 321.35C1282.59 322.75 1285.84 324.85 1288.54 327.65C1291.24 330.35 1293.29 333.7 1294.69 337.7C1296.19 341.6 1296.94 346.05 1296.94 351.05C1296.94 356.15 1296.14 360.8 1294.54 365C1293.04 369.1 1290.84 372.65 1287.94 375.65C1285.04 378.55 1281.49 380.8 1277.29 382.4C1273.19 384 1268.54 384.8 1263.34 384.8C1259.24 384.8 1255.54 384.35 1252.24 383.45C1248.94 382.65 1245.99 381.5 1243.39 380C1240.79 378.4 1238.44 376.55 1236.34 374.45C1234.34 372.35 1232.54 370.1 1230.94 367.7L1237.69 362.6C1240.59 367.1 1243.94 370.6 1247.74 373.1C1251.64 375.5 1256.84 376.7 1263.34 376.7C1271.14 376.7 1277.09 374.6 1281.19 370.4C1285.39 366.1 1287.49 360.3 1287.49 353V350.45C1287.49 343.15 1285.44 337.4 1281.34 333.2C1277.34 328.9 1271.49 326.75 1263.79 326.75C1261.09 326.75 1258.69 327 1256.59 327.5C1254.49 327.9 1252.59 328.55 1250.89 329.45C1249.29 330.25 1247.79 331.25 1246.39 332.45C1245.09 333.55 1243.79 334.85 1242.49 336.35L1234.69 335.15L1238.44 278.3H1292.59V286.25Z" fill="black"/>
<rect x="617.25" y="347.75" width="375" height="350" rx="18" fill="#FED96F"/>
<path d="M795.338 235.147C801.233 231.396 808.767 231.396 814.662 235.147L1034.29 374.875C1049.49 384.542 1042.64 408.062 1024.63 408.062H585.369C567.359 408.062 560.512 384.542 575.707 374.875L795.338 235.147Z" fill="#FED96F"/>
<rect x="533.5" y="381.5" width="375" height="350" rx="18" fill="#8FE9FF"/>
<path d="M711.338 263.147C717.233 259.396 724.767 259.396 730.662 263.147L950.293 402.875C965.488 412.542 958.641 436.062 940.631 436.062H501.369C483.359 436.062 476.512 412.542 491.707 402.875L711.338 263.147Z" fill="#8FE9FF"/>
<path d="M627.338 290.147C633.233 286.396 640.767 286.396 646.662 290.147L866.293 429.875C881.488 439.542 874.641 463.062 856.631 463.062H417.369C399.359 463.062 392.512 439.542 407.707 429.875L627.338 290.147Z" fill="#D8C3B5"/>
<rect x="449.75" y="415.25" width="375" height="350" rx="18" fill="#D8C3B5"/>
<path d="M175.165 582.412C173.803 571.161 174.759 561.308 178.034 552.853C181.44 544.382 186.579 536.911 193.451 530.438L205.266 541.498C199.373 547.181 195.066 553.209 192.346 559.582C189.758 565.939 188.953 573.155 189.93 581.229C191.132 591.157 194.428 598.413 199.818 602.998C205.224 607.716 211.899 609.594 219.841 608.633C226.459 607.832 231.315 605.229 234.408 600.826C237.501 596.422 239.554 589.525 240.566 580.135L241.777 568.506C243.151 555.446 246.341 545.188 251.348 537.732C256.503 530.393 264.441 526.074 275.163 524.776C281.252 524.039 286.815 524.507 291.853 526.18C296.891 527.854 301.238 530.484 304.896 534.07C308.569 537.789 311.537 542.332 313.798 547.699C316.208 553.182 317.822 559.299 318.639 566.05C319.905 576.507 319.067 585.674 316.126 593.551C313.201 601.561 308.344 608.596 301.557 614.655L290.909 603.252C295.739 598.773 299.348 593.635 301.735 587.84C304.123 582.044 304.828 575.109 303.85 567.035C302.776 558.166 300.008 551.383 295.544 546.685C291.229 542.104 285.299 540.27 277.754 541.184C271.136 541.985 266.362 544.712 263.433 549.364C260.653 554.133 258.799 561.005 257.871 569.982L256.66 581.612C255.266 595.614 251.827 606.036 246.343 612.878C240.859 619.721 232.955 623.767 222.63 625.016C216.276 625.786 210.382 625.358 204.947 623.732C199.529 622.239 194.784 619.658 190.713 615.987C186.643 612.316 183.254 607.623 180.547 601.907C177.857 596.323 176.063 589.825 175.165 582.412Z" fill="black"/>
<path d="M327.063 669.972L209.902 712.964L204.115 697.192L321.276 654.2L305.981 612.518L319.875 607.42L356.252 706.556L342.358 711.654L327.063 669.972Z" fill="black"/>
<path d="M241.925 784.572L358.473 707.73L405.371 778.861L393.015 787.008L355.364 729.902L316.292 755.663L351.741 809.429L339.385 817.575L303.936 763.81L263.528 790.451L301.179 847.557L288.823 855.703L241.925 784.572Z" fill="black"/>
<path d="M312.158 881.783L322.095 871.921L335.902 885.833L415.112 807.218L401.305 793.307L411.242 783.445L450.69 823.192L440.753 833.054L426.946 819.142L347.736 897.757L361.543 911.669L351.606 921.531L312.158 881.783Z" fill="black"/>
<path d="M456.806 896.255L459.27 861.082L458.763 860.76L396.395 958.804L382.558 950.001L457.485 832.213L473.854 842.626L471.156 941.887L468.692 977.061L469.199 977.383L531.567 879.339L545.404 888.141L470.476 1005.93L454.108 995.516L456.806 896.255Z" fill="black"/>
<path d="M515.57 1025.37L558.097 892.403L639.247 918.358L634.739 932.454L569.59 911.617L555.333 956.193L616.672 975.811L612.164 989.908L550.825 970.29L536.08 1016.39L601.229 1037.23L596.721 1051.32L515.57 1025.37Z" fill="black"/>
<path d="M655.477 1060.42L638.714 1059.31L647.91 920.015L703.389 923.678C715.629 924.486 724.918 928.507 731.255 935.74C737.726 942.982 740.539 952.989 739.696 965.761C739.02 976.006 736.067 984.296 730.838 990.632C725.751 996.844 718.548 1000.71 709.227 1002.23L737.1 1065.81L718.141 1064.56L691.959 1002.7L659.43 1000.55L655.477 1060.42ZM699.094 988.737C705.746 989.176 710.983 987.784 714.803 984.562C718.757 981.349 720.944 976.549 721.366 970.163L722.051 959.786C722.473 953.4 720.935 948.354 717.438 944.649C714.074 940.953 709.066 938.885 702.414 938.446L663.699 935.89L660.378 986.181L699.094 988.737Z" fill="black"/>
<path d="M816.318 1057.37C805.163 1059.37 795.271 1058.98 786.643 1056.2C777.991 1053.28 770.238 1048.58 763.382 1042.09L773.749 1029.66C779.759 1035.22 786.024 1039.17 792.542 1041.52C799.037 1043.74 806.287 1044.14 814.292 1042.7C824.134 1040.93 831.191 1037.22 835.46 1031.58C839.861 1025.91 841.354 1019.14 839.94 1011.27C838.762 1004.71 835.886 1000.01 831.312 997.173C826.739 994.336 819.736 992.682 810.304 992.208L798.624 991.664C785.507 991.04 775.083 988.442 767.353 983.869C759.731 979.142 754.965 971.464 753.056 960.834C751.972 954.797 752.121 949.216 753.504 944.091C754.886 938.966 757.263 934.475 760.634 930.619C764.137 926.738 768.503 923.516 773.732 920.951C779.068 918.232 785.083 916.271 791.776 915.069C802.143 913.207 811.343 913.519 819.376 916.004C827.54 918.467 834.841 922.913 841.279 929.343L830.503 940.625C825.755 936.059 820.419 932.75 814.497 930.698C808.574 928.646 801.61 928.339 793.605 929.777C784.812 931.356 778.198 934.508 773.764 939.233C769.437 943.803 767.945 949.829 769.289 957.309C770.467 963.871 773.463 968.48 778.275 971.138C783.195 973.641 790.162 975.099 799.177 975.512L810.857 976.056C824.916 976.647 835.518 979.484 842.663 984.568C849.807 989.651 854.299 997.311 856.137 1007.55C857.269 1013.85 857.178 1019.76 855.867 1025.27C854.686 1030.77 852.38 1035.65 848.948 1039.93C845.516 1044.2 841.024 1047.85 835.472 1050.88C830.052 1053.89 823.667 1056.05 816.318 1057.37Z" fill="black"/>
<path d="M907.395 956.682L898.298 984.847L917.316 1027.39L901.978 1034.25L845.006 906.801L860.344 899.944L890.625 967.684L891.173 967.439L899.556 937.184L917.676 874.315L936.482 865.908L913.415 941.723L996.741 991.884L977.752 1000.37L907.395 956.682Z" fill="black"/>
<path d="M1067.84 941.557C1060.83 947.307 1053.52 951.322 1045.91 953.601C1038.31 955.693 1030.6 956.068 1022.77 954.727C1014.97 953.198 1007.15 949.868 999.318 944.736C991.403 939.502 983.725 932.348 976.284 923.276C968.843 914.204 963.372 905.327 959.872 896.644C956.371 887.961 954.635 879.642 954.663 871.687C954.794 863.647 956.671 856.158 960.293 849.221C963.933 842.096 969.259 835.659 976.269 829.909C983.176 824.244 990.48 820.323 998.179 818.146C1005.79 815.867 1013.5 815.492 1021.31 817.021C1029.22 818.465 1037.09 821.753 1044.92 826.885C1052.75 832.016 1060.39 839.118 1067.83 848.19C1075.27 857.262 1080.78 866.191 1084.37 874.977C1087.87 883.66 1089.55 892.021 1089.42 900.061C1089.31 907.913 1087.43 915.402 1083.79 922.527C1080.07 929.548 1074.75 935.892 1067.84 941.557ZM1058.33 929.959C1062.97 926.154 1066.57 921.821 1069.14 916.958C1071.7 912.095 1073.11 906.976 1073.35 901.6C1073.7 896.14 1072.88 890.611 1070.87 885.012C1068.87 879.414 1065.67 873.935 1061.27 868.574L1046.56 850.636C1042.16 845.275 1037.41 841.064 1032.31 838.003C1027.22 834.941 1021.96 833.048 1016.53 832.323C1011.21 831.513 1005.92 831.89 1000.65 833.454C995.376 835.017 990.421 837.702 985.782 841.507C981.143 845.312 977.541 849.646 974.976 854.508C972.412 859.371 970.954 864.532 970.604 869.993C970.358 875.368 971.237 880.855 973.242 886.454C975.247 892.052 978.448 897.531 982.845 902.892L997.558 920.83C1001.95 926.191 1006.7 930.402 1011.8 933.464C1016.9 936.525 1022.11 938.461 1027.43 939.27C1032.85 939.996 1038.2 939.576 1043.47 938.013C1048.74 936.449 1053.69 933.765 1058.33 929.959Z" fill="black"/>
<path d="M1138.41 869.905L1026.62 786.298L1036.68 772.844L1136.62 847.587L1172.2 800.019L1184.05 808.882L1138.41 869.905Z" fill="black"/>
<path d="M1237.09 698.335L1193.73 694.63L1171.11 746.291L1203.23 775.645L1196.41 791.217L1088.11 690.508L1096.7 670.906L1244.15 682.214L1237.09 698.335ZM1106.74 686.874L1106.34 687.79L1159.15 736.689L1178.49 692.539L1106.74 686.874Z" fill="black"/>
<path d="M1173.67 601.902L1140.57 614.068L1140.49 614.662L1255.48 631.378L1253.12 647.608L1114.97 627.525L1117.76 608.326L1209.41 570.114L1242.51 557.948L1242.59 557.355L1127.6 540.638L1129.96 524.408L1268.11 544.492L1265.32 563.69L1173.67 601.902Z" fill="black"/>
</svg>
